<svg width="253" height="352" viewBox="0 0 253 352" fill="none" xmlns="http://www.w3.org/2000/svg">
<rect width="253" height="352" fill="#E5E5E5"/>
<mask id="path-1-inside-1_0_1" fill="white">
<rect width="253" height="352" rx="2"/>
</mask>
<rect width="253" height="352" rx="2" fill="#00D1FF" stroke="#414141" stroke-width="6" mask="url(#path-1-inside-1_0_1)"/>
<mask id="path-2-inside-2_0_1" fill="white">
<path d="M17 15C17 13.3431 18.3431 12 20 12H233C234.657 12 236 13.3431 236 15V337C236 338.657 234.657 340 233 340H20C18.3431 340 17 338.657 17 337V15Z"/>
</mask>
<path d="M17 15C17 13.3431 18.3431 12 20 12H233C234.657 12 236 13.3431 236 15V337C236 338.657 234.657 340 233 340H20C18.3431 340 17 338.657 17 337V15Z" fill="#00D1FF" stroke="#414141" stroke-width="10" mask="url(#path-2-inside-2_0_1)"/>
<rect width="29.3197" height="29.268" transform="matrix(0.738164 0.674622 -0.718341 0.695691 209.625 17.0323)" fill="#414141"/>
<rect width="29.3197" height="29.268" transform="matrix(0.738164 0.674622 -0.718341 0.695691 209.625 136.258)" fill="#414141"/>
<rect width="29.3197" height="29.268" transform="matrix(0.738164 0.674622 -0.718341 0.695691 209.625 56.7742)" fill="#414141"/>
<rect width="29.3197" height="29.268" transform="matrix(0.738164 0.674622 -0.718341 0.695691 209.625 176)" fill="#414141"/>
<rect width="29.3197" height="29.268" transform="matrix(0.738164 0.674622 -0.718341 0.695691 209.625 255.484)" fill="#414141"/>
<rect width="29.3197" height="29.268" transform="matrix(0.738164 0.674622 -0.718341 0.695691 209.625 96.5161)" fill="#414141"/>
<rect width="29.3197" height="29.268" transform="matrix(0.738164 0.674622 -0.718341 0.695691 209.625 215.742)" fill="#414141"/>
<rect width="29.3197" height="29.268" transform="matrix(0.738164 0.674622 -0.718341 0.695691 209.625 295.226)" fill="#414141"/>
<rect width="29.3197" height="29.268" transform="matrix(0.738164 0.674622 -0.718341 0.695691 43.6718 17.0323)" fill="#414141"/>
<rect width="29.3197" height="29.268" transform="matrix(0.738164 0.674622 -0.718341 0.695691 43.6718 136.258)" fill="#414141"/>
<rect width="29.3197" height="29.268" transform="matrix(0.738164 0.674622 -0.718341 0.695691 43.6718 56.7742)" fill="#414141"/>
<rect width="29.3197" height="29.268" transform="matrix(0.738164 0.674622 -0.718341 0.695691 43.6718 176)" fill="#414141"/>
<rect width="29.3197" height="29.268" transform="matrix(0.738164 0.674622 -0.718341 0.695691 43.6718 255.484)" fill="#414141"/>
<rect width="29.3197" height="29.268" transform="matrix(0.738164 0.674622 -0.718341 0.695691 43.6718 96.5161)" fill="#414141"/>
<rect width="29.3197" height="29.268" transform="matrix(0.738164 0.674622 -0.718341 0.695691 43.6718 215.742)" fill="#414141"/>
<rect width="29.3197" height="29.268" transform="matrix(0.738164 0.674622 -0.718341 0.695691 43.6718 295.226)" fill="#414141"/>
<rect width="29.3197" height="29.268" transform="matrix(0.738164 0.674622 -0.718341 0.695691 85.9146 17.0323)" fill="#414141"/>
<rect width="29.3197" height="29.268" transform="matrix(0.738164 0.674622 -0.718341 0.695691 85.9146 136.258)" fill="#414141"/>
<rect width="29.3197" height="29.268" transform="matrix(0.738164 0.674622 -0.718341 0.695691 85.9146 56.7742)" fill="#414141"/>
<rect width="29.3197" height="29.268" transform="matrix(0.738164 0.674622 -0.718341 0.695691 85.9146 176)" fill="#414141"/>
<rect width="29.3197" height="29.268" transform="matrix(0.738164 0.674622 -0.718341 0.695691 85.9146 255.484)" fill="#414141"/>
<rect width="29.3197" height="29.268" transform="matrix(0.738164 0.674622 -0.718341 0.695691 85.9146 96.5161)" fill="#414141"/>
<rect width="29.3197" height="29.268" transform="matrix(0.738164 0.674622 -0.718341 0.695691 85.9146 215.742)" fill="#414141"/>
<rect width="29.3197" height="29.268" transform="matrix(0.738164 0.674622 -0.718341 0.695691 85.9146 295.226)" fill="#414141"/>
<rect width="29.3197" height="29.268" transform="matrix(0.738164 0.674622 -0.718341 0.695691 125.14 17.0323)" fill="#414141"/>
<rect width="29.3197" height="29.268" transform="matrix(0.738164 0.674622 -0.718341 0.695691 125.14 136.258)" fill="#414141"/>
<rect width="29.3197" height="29.268" transform="matrix(0.738164 0.674622 -0.718341 0.695691 125.14 56.7742)" fill="#414141"/>
<rect width="29.3197" height="29.268" transform="matrix(0.738164 0.674622 -0.718341 0.695691 125.14 176)" fill="#414141"/>
<rect width="29.3197" height="29.268" transform="matrix(0.738164 0.674622 -0.718341 0.695691 125.14 255.484)" fill="#414141"/>
<rect width="29.3197" height="29.268" transform="matrix(0.738164 0.674622 -0.718341 0.695691 125.14 96.5161)" fill="#414141"/>
<rect width="29.3197" height="29.268" transform="matrix(0.738164 0.674622 -0.718341 0.695691 125.14 215.742)" fill="#414141"/>
<rect width="29.3197" height="29.268" transform="matrix(0.738164 0.674622 -0.718341 0.695691 125.14 295.226)" fill="#414141"/>
<rect width="29.3197" height="29.268" transform="matrix(0.738164 0.674622 -0.718341 0.695691 167.383 17.0323)" fill="#414141"/>
<rect width="29.3197" height="29.268" transform="matrix(0.738164 0.674622 -0.718341 0.695691 167.383 136.258)" fill="#414141"/>
<rect width="29.3197" height="29.268" transform="matrix(0.738164 0.674622 -0.718341 0.695691 167.383 56.7742)" fill="#414141"/>
<rect width="29.3197" height="29.268" transform="matrix(0.738164 0.674622 -0.718341 0.695691 167.383 176)" fill="#414141"/>
<rect width="29.3197" height="29.268" transform="matrix(0.738164 0.674622 -0.718341 0.695691 167.383 255.484)" fill="#414141"/>
<rect width="29.3197" height="29.268" transform="matrix(0.738164 0.674622 -0.718341 0.695691 167.383 96.5161)" fill="#414141"/>
<rect width="29.3197" height="29.268" transform="matrix(0.738164 0.674622 -0.718341 0.695691 167.383 215.742)" fill="#414141"/>
<rect width="29.3197" height="29.268" transform="matrix(0.738164 0.674622 -0.718341 0.695691 167.383 295.226)" fill="#414141"/>
</svg>
